:SAMPLES-PER-SECOND 30
:FULLY-SPECIFIED
:DEGREES
1063
root  -9.38868 37.8743 30.0073 175.398 0.241519 176.407
RightUpLeg  -6.41758 -4.45065 -23.659
RightLeg  18.5295 5.56183 1.87971
RightFoot  -4.46869 -1.01374 16.4204
RightToes  -1.33073e-015 0 -3.6325e-017
Spine  13.8213 0.659223 -3.15955
Spine1  8.66087 -0.626875 3.02525
HEad  -0.473969 -12.753 1.49194
LeftShoulder1  0.23961 2.77765 -26.7995
LeftArm  -10.654 19.3543 -32.3887
LeftForeArm  85.5042 -78.4785 -106.833
LeftHand  -0.169302 1.52461 4.89756
RightShoulder  -0.239697 -4.24119 25.073
RightArm  -7.13456 -7.81564 38.8221
RightForeArm  83.5779 78.1747 108.818
RightHand  -0.0603131 1.5414 -1.15165
LeftUpLeg  -5.49631 5.78447 15.1501
LeftLeg  18.6786 -6.73075 -2.0925
LeftFoot  -6.44534 0.590927 -12.8642
LeftToes  -1.93726e-010 2.42366e-011 2.16268e-013
1064
root  -8.30246 37.8101 30.0531 175.654 0.297078 177.159
RightUpLeg  -8.35088 -5.75091 -21.1662
RightLeg  22.2249 6.31119 2.62891
RightFoot  -6.77217 -0.615798 14.2484
RightToes  -1.33073e-015 0 -3.6325e-017
Spine  14.9003 -0.162951 0.9096
Spine1  8.13963 -0.459996 1.22186
HEad  -0.395614 -12.8525 0.540192
LeftShoulder1  0.285022 2.64803 -27.1378
LeftArm  -11.6509 20.239 -31.9646
LeftForeArm  82.4131 -78.5853 -104.369
LeftHand  -0.203961 1.2372 5.5973
RightShoulder  -0.305353 -4.44575 25.2499
RightArm  -6.09262 -6.22627 39.0087
RightForeArm  84.1322 78.1761 109.016
RightHand  -0.052036 1.2265 -1.03261
LeftUpLeg  -4.75934 6.04458 17.4931
LeftLeg  16.1092 -7.14185 -1.4799
LeftFoot  -4.34724 0.892879 -14.0331
LeftToes  -1.93726e-010 2.42366e-011 2.16268e-013
1065
root  -7.12587 37.8263 30.1274 176.761 0.541009 177.923
RightUpLeg  -11.1375 -7.95531 -18.3839
RightLeg  25.4419 7.57795 3.68994
RightFoot  -8.02771 -0.406122 12.1428
RightToes  -1.33073e-015 0 -3.6325e-017
Spine  14.926 -0.619762 3.45858
Spine1  7.92127 -0.388026 0.319978
HEad  -1.49902 -12.0185 0.327332
LeftShoulder1  0.268987 2.70617 -27.5722
LeftArm  -12.9353 21.216 -32.4509
LeftForeArm  81.4463 -78.714 -102.466
LeftHand  -0.171669 1.23398 4.68021
RightShoulder  -0.208387 -4.15219 24.5219
RightArm  -5.06058 -4.5891 39.5189
RightForeArm  81.385 78.2979 106.785
RightHand  -0.0998242 1.23753 -1.87275
LeftUpLeg  -4.92296 7.32892 19.2991
LeftLeg  13.2867 -6.69192 0.00650932
LeftFoot  -0.725876 1.22121 -13.3232
LeftToes  -1.93726e-010 2.42366e-011 2.16268e-013
1066
root  -5.93924 38.0094 30.2045 177.946 -0.16208 177.84
RightUpLeg  -12.5934 -9.46967 -16.3808
RightLeg  26.3584 7.54168 3.82658
RightFoot  -8.64323 -0.302447 10.3255
RightToes  -1.33073e-015 0 -3.6325e-017
Spine  14.7527 -0.716878 3.03453
Spine1  7.7354 -0.928716 1.96435
HEad  -2.88435 -11.4542 1.14633
LeftShoulder1  0.271374 2.71298 -28.1889
LeftArm  -13.7506 21.7384 -32.6455
LeftForeArm  80.4751 -78.7601 -101.402
LeftHand  -0.171424 1.31541 4.7597
RightShoulder  -0.108713 -3.83731 23.9338
RightArm  -3.91812 -2.83756 39.2075
RightForeArm  77.7512 78.4531 103.572
RightHand  -0.134488 1.23158 -2.48535
LeftUpLeg  -5.77909 9.14391 19.3329
LeftLeg  10.7888 -3.47053 1.80534
LeftFoot  4.85338 1.22986 -8.82726
LeftToes  -1.93726e-010 2.42366e-011 2.16268e-013
1067
root  -4.87072 38.213 30.3286 179.075 -2.30236 177.815
RightUpLeg  -13.3073 -10.2987 -14.5194
RightLeg  26.4577 5.92927 2.98166
RightFoot  -8.93634 -0.249343 8.98421
RightToes  -1.33073e-015 0 -3.6325e-017
Spine  14.5642 -1.41306 3.18698
Spine1  7.71185 -1.89442 3.04838
HEad  -3.33589 -11.9182 1.87207
LeftShoulder1  0.338123 2.50525 -27.6977
LeftArm  -14.1592 21.0518 -33.5127
LeftForeArm  75.3047 -78.9222 -96.0135
LeftHand  -0.154789 1.67353 4.62434
RightShoulder  -0.159633 -4.00132 24.1624
RightArm  -3.51516 -1.15816 38.8305
RightForeArm  75.1109 78.549 101.146
RightHand  -0.120161 1.41512 -2.18799
LeftUpLeg  -8.11232 9.44168 18.6532
LeftLeg  10.8256 0.591425 2.156
LeftFoot  6.89596 0.922721 -5.9639
LeftToes  -1.93726e-010 2.42366e-011 2.16268e-013
1068
root  -3.97579 38.468 30.429 179.47 -4.08394 177.296
RightUpLeg  -13.0454 -10.5351 -13.51
RightLeg  25.7729 4.2248 1.99435
RightFoot  -8.69694 -0.242825 7.94817
RightToes  -1.33073e-015 0 -3.6325e-017
Spine  14.859 -1.91382 3.52294
Spine1  7.84865 -2.40761 3.09969
HEad  -3.99253 -13.2632 2.31342
LeftShoulder1  0.36198 2.43851 -27.8285
LeftArm  -13.2794 18.9786 -33.7023
LeftForeArm  67.5296 -78.9932 -87.8768
LeftHand  -0.135873 1.63075 3.9776
RightShoulder  -0.190498 -4.10543 24.0082
RightArm  -4.13369 -0.893217 38.5874
RightForeArm  74.5977 78.5504 100.855
RightHand  -0.106454 1.44251 -1.94832
LeftUpLeg  -9.88 9.31638 16.5815
LeftLeg  13.1787 0.39013 1.08301
LeftFoot  3.95957 0.770502 -5.91297
LeftToes  -1.93726e-010 2.42366e-011 2.16268e-013
1069
root  -3.25555 38.7465 30.5257 179.621 -5.7208 176.359
RightUpLeg  -12.1854 -11.8191 -13.3856
RightLeg  24.4342 3.74942 1.64103
RightFoot  -8.16968 -0.247723 6.93579
RightToes  -1.33073e-015 0 -3.6325e-017
Spine  15.3479 -2.30995 3.73129
Spine1  7.82559 -2.74443 2.96018
HEad  -4.30432 -15.2295 2.81601
LeftShoulder1  0.368797 2.41503 -27.7404
LeftArm  -12.4224 16.9801 -34.6854
LeftForeArm  60.7628 -78.8687 -80.8035
LeftHand  -0.187446 1.063 4.94962
RightShoulder  -0.167796 -4.03468 23.7883
RightArm  -5.17822 -1.51451 38.4123
RightForeArm  76.262 78.5171 102.116
RightHand  -0.118271 1.06703 -2.24363
LeftUpLeg  -11.4688 8.22354 13.0335
LeftLeg  16.8346 1.12469 0.712692
LeftFoot  0.807598 0.516877 -4.865
LeftToes  -1.93726e-010 2.42366e-011 2.16268e-013
